<?xml version="1.0" encoding="UTF-8" standalone="no"?>
<!-- Generator: Adobe Illustrator 21.1.0, SVG Export Plug-In . SVG Version: 6.00 Build 0)  -->

<svg
   xmlns:dc="http://purl.org/dc/elements/1.1/"
   xmlns:cc="http://creativecommons.org/ns#"
   xmlns:rdf="http://www.w3.org/1999/02/22-rdf-syntax-ns#"
   xmlns:svg="http://www.w3.org/2000/svg"
   xmlns="http://www.w3.org/2000/svg"
   xmlns:sodipodi="http://sodipodi.sourceforge.net/DTD/sodipodi-0.dtd"
   xmlns:inkscape="http://www.inkscape.org/namespaces/inkscape"
   version="1.1"
   id="Ebene_1"
   x="0px"
   y="0px"
   viewBox="0 0 250 250"
   style="enable-background:new 0 0 250 250;"
   xml:space="preserve"
   sodipodi:docname="zeebe-icon.svg"
   inkscape:export-filename="/home/menski/zeebe-64-white.png"
   inkscape:export-xdpi="24.575998"
   inkscape:export-ydpi="24.575998"
   inkscape:version="0.92.1 r"><metadata
     id="metadata25"><rdf:RDF><cc:Work
         rdf:about=""><dc:format>image/svg+xml</dc:format><dc:type
           rdf:resource="http://purl.org/dc/dcmitype/StillImage" /></cc:Work></rdf:RDF></metadata><defs
     id="defs23" /><sodipodi:namedview
     pagecolor="#ffffff"
     bordercolor="#666666"
     borderopacity="1"
     objecttolerance="10"
     gridtolerance="10"
     guidetolerance="10"
     inkscape:pageopacity="0"
     inkscape:pageshadow="2"
     inkscape:window-width="3200"
     inkscape:window-height="1738"
     id="namedview21"
     showgrid="false"
     showguides="false"
     inkscape:zoom="11.824"
     inkscape:cx="119.22283"
     inkscape:cy="24.565492"
     inkscape:window-x="0"
     inkscape:window-y="62"
     inkscape:window-maximized="0"
     inkscape:current-layer="Ebene_1" /><style
     type="text/css"
     id="style10">
	.st0{fill:#0D8DBA;}
</style><path
     style="fill:#ffffff;fill-opacity:1;stroke-width:2.5793519"
     d="M 125.47852 13.193359 A 116.88092 119.841 0 0 0 8.5976562 133.03516 A 116.88092 119.841 0 0 0 61.837891 233.42383 L 189.24609 233.42383 A 116.88092 119.841 0 0 0 242.35938 133.03516 A 116.88092 119.841 0 0 0 125.47852 13.193359 z "
     id="path4502" /><g
     id="g18"
     transform="matrix(0.97778029,0,0,0.98415657,4.0577713,0.20596462)"
     style="fill:#0d8dba;fill-opacity:1"><path
       class="st0"
       d="M 124.4,13 C 57.1,13 2.6,67.5 2.6,134.8 c 0,42.9 22.2,80.7 55.8,102.4 2.3,-5.2 6.6,-10.1 11.2,-14.3 l 109.3,-0.3 c 4.7,4.3 9.2,9.3 11.5,14.6 C 224,215.5 246.2,177.8 246.2,134.8 246.2,67.5 191.6,13 124.4,13 Z m 91.5,137.3 c -2.2,0.3 -4.1,-0.6 -5.3,-2.2 -1.3,-1.8 -3.4,-2.8 -5.6,-2.8 h -2.1 c 0.2,2.1 0.3,4.2 0.3,6.3 0.1,22.9 -10.3,44.1 -28.2,58.5 L 74,210.4 C 56.1,196 45.6,174.9 45.6,152 c 0,-2.3 0.1,-4.5 0.3,-6.7 h -2.1 c -2.2,0 -4.3,1 -5.6,2.8 -1.2,1.6 -3.1,2.5 -5.3,2.2 -2.8,-0.4 -4.9,-3 -4.9,-5.8 v -12.1 c 0,-2.9 2,-5.4 4.9,-5.8 1.1,-0.1 2.1,0 3.1,0.4 6.1,-48.2 43.2,-85.4 88.2,-85.5 16.3,0 31.7,4.8 44.9,13.4 l 8.4,-6.8 c -1.3,-2.3 -1.3,-5.3 0.4,-7.6 2.2,-3.1 6.6,-3.9 9.8,-1.6 3.1,2.2 3.9,6.6 1.6,9.8 -1.5,2.2 -4.1,3.2 -6.6,2.9 l -3.9,10.6 c 18.1,15.5 30.7,38.5 34.1,64.9 0.9,-0.4 2,-0.6 3.2,-0.5 2.8,0.4 4.9,3 4.9,5.8 v 12.1 c -0.2,2.8 -2.2,5.4 -5.1,5.8 z"
       id="path12"
       inkscape:connector-curvature="0"
       style="fill:#0d8dba;fill-opacity:1" /><path
       class="st0"
       d="m 124.4,67.7 c -0.1,0 -0.2,0 -0.2,0 -40.3,0.1 -74.1,26.9 -83.8,62.9 1,0.6 2.2,0.9 3.4,0.9 h 4.6 C 57.6,99.4 88,75.8 124.2,75.7 c 0.1,0 0.1,0 0.2,0 36.2,0 66.7,23.7 75.9,55.8 h 4.7 c 1.2,0 2.4,-0.3 3.4,-0.9 -9.7,-36.1 -43.7,-62.9 -84,-62.9 z"
       id="path14"
       inkscape:connector-curvature="0"
       style="fill:#0d8dba;fill-opacity:1" /><path
       class="st0"
       d="m 147.3,107.2 h -45.9 c -24.2,0 -43.8,19.6 -43.8,43.8 v 4 c 0,24.2 19.6,43.8 43.8,43.8 h 45.9 c 24.2,0 43.8,-19.6 43.8,-43.8 v -4 c 0,-24.2 -19.6,-43.8 -43.8,-43.8 z m -1.6,77.9 c -6.6,2.4 -15.8,3 -22.8,3 -5.7,0 -9.9,-0.4 -10.3,-0.4 -1.9,-0.2 -3.3,-1.9 -3.2,-3.8 0.2,-1.9 1.9,-3.3 3.8,-3.2 0.2,0 19.5,1.7 30,-2.2 1.8,-0.7 3.8,0.3 4.5,2.1 0.7,1.8 -0.2,3.8 -2,4.5 z m 19,-23.7 c -4.5,4.8 -10.7,7.4 -17.3,7.4 -7.8,0 -15.1,-3.8 -19.5,-10.2 -1.1,-1.6 -0.7,-3.8 0.9,-4.9 1.6,-1.1 3.8,-0.7 4.9,0.9 3.2,4.5 8.3,7.2 13.8,7.2 4.7,0 9,-1.9 12.2,-5.3 3.2,-3.4 4.8,-7.8 4.6,-12.5 -0.5,-8.6 -7.5,-15.5 -16.1,-15.9 -5.1,-0.2 -9.9,1.9 -13.3,5.7 -0.8,0.8 -1.5,1.9 -2.2,3.2 l -10.3,19.2 c -1.5,2.7 -3.3,5 -5.3,6.8 -4.3,3.7 -9.8,5.8 -15.6,5.8 -6.6,0 -12.7,-2.6 -17.3,-7.4 -4.5,-4.8 -6.8,-11.1 -6.5,-17.7 0.7,-12.1 10.7,-22 22.8,-22.5 8.5,-0.3 16.5,3.9 21,11 1,1.6 0.6,3.8 -1.1,4.8 -1.6,1 -3.8,0.6 -4.8,-1.1 -3.3,-5.1 -8.8,-8 -14.9,-7.8 -8.6,0.3 -15.7,7.3 -16.1,15.9 -0.3,4.7 1.4,9.1 4.6,12.5 3.2,3.4 7.5,5.3 12.2,5.3 4,0 7.9,-1.5 11,-4.1 1.4,-1.2 2.7,-2.9 3.8,-4.8 l 10.3,-19.2 c 1,-1.8 2,-3.3 3.1,-4.5 4.8,-5.4 11.6,-8.3 18.8,-8 12.1,0.5 22.1,10.4 22.8,22.5 0.3,6.7 -2,12.9 -6.5,17.7 z"
       id="path16"
       inkscape:connector-curvature="0"
       style="fill:#0d8dba;fill-opacity:1" /></g></svg>